<svg width="674" height="157" viewBox="0 0 674 157" fill="none" xmlns="http://www.w3.org/2000/svg">
<g clip-path="url(#clip0_41_2)">
<mask id="mask0_41_2" style="mask-type:alpha" maskUnits="userSpaceOnUse" x="1" y="2" width="173" height="153">
<path d="M124.623 2.64844C128.91 2.64844 132.872 4.93563 135.016 8.64844L171.911 72.5527C174.055 76.2655 174.055 80.8399 171.911 84.5527L135.016 148.457C132.872 152.17 128.91 154.457 124.623 154.457H50.8332C46.546 154.457 42.5842 152.17 40.4406 148.457L3.54514 84.5527C1.40162 80.84 1.40162 76.2655 3.54514 72.5527L40.4406 8.64844C42.5842 4.93562 46.546 2.64844 50.8332 2.64844H124.623ZM62.7024 121.897C61.616 123.78 62.9745 126.133 65.1477 126.133H110.308C112.481 126.133 113.84 123.78 112.753 121.897L87.7278 78.5518L62.7024 121.897ZM65.1477 30.9717C62.9744 30.9719 61.6158 33.3248 62.7024 35.207L87.7278 78.5518H137.779C139.952 78.5518 141.311 76.1988 140.224 74.3164L116.014 32.3838C115.51 31.5102 114.577 30.9717 113.569 30.9717H65.1477Z" fill="url(#paint0_linear_41_2)"/>
</mask>
<g mask="url(#mask0_41_2)">
<g filter="url(#filter0_f_41_2)">
<ellipse cx="103.592" cy="196.186" rx="241.534" ry="215.535" transform="rotate(121.241 103.592 196.186)" fill="#2E59FF"/>
</g>
<g filter="url(#filter1_f_41_2)">
<ellipse cx="11.5435" cy="65.8845" rx="81.2549" ry="64.1569" transform="rotate(130.201 11.5435 65.8845)" fill="#26B3FF"/>
</g>
<mask id="path-4-inside-1_41_2" fill="white">
<path d="M124.623 2.64844C128.91 2.64844 132.872 4.93563 135.016 8.64844L171.911 72.5527C174.055 76.2655 174.055 80.8399 171.911 84.5527L135.016 148.457C132.872 152.17 128.91 154.457 124.623 154.457H50.8332C46.546 154.457 42.5842 152.17 40.4406 148.457L3.54514 84.5527C1.40162 80.84 1.40162 76.2655 3.54514 72.5527L40.4406 8.64844C42.5842 4.93562 46.546 2.64844 50.8332 2.64844H124.623ZM62.7024 121.897C61.616 123.78 62.9744 126.133 65.1477 126.133H110.308C112.481 126.133 113.84 123.78 112.753 121.897L87.7278 78.5518L62.7024 121.897ZM65.1477 30.9717C62.9744 30.9719 61.6158 33.3248 62.7024 35.207L87.7278 78.5518H137.779C139.952 78.5518 141.311 76.1988 140.224 74.3164L116.014 32.3838C115.51 31.5102 114.577 30.9717 113.569 30.9717H65.1477Z"/>
</mask>
<path d="M124.623 2.64844V4.64844V4.64844V2.64844ZM135.016 8.64844L133.284 9.64844L133.284 9.64844L135.016 8.64844ZM171.911 72.5527L173.643 71.5527V71.5527L171.911 72.5527ZM171.911 84.5527L173.643 85.5527V85.5527L171.911 84.5527ZM135.016 148.457L133.284 147.457H133.284L135.016 148.457ZM124.623 154.457V156.457H124.623L124.623 154.457ZM50.8332 154.457V156.457V156.457V154.457ZM40.4406 148.457L42.1727 147.457H42.1727L40.4406 148.457ZM3.54514 84.5527L1.81308 85.5527L1.81309 85.5527L3.54514 84.5527ZM3.54514 72.5527L1.81309 71.5527L1.81308 71.5527L3.54514 72.5527ZM40.4406 8.64844L42.1727 9.64844L42.1727 9.64844L40.4406 8.64844ZM50.8332 2.64844V0.648438V0.648438V2.64844ZM62.7024 121.897L60.9703 120.897L60.9702 120.898L62.7024 121.897ZM65.1477 126.133L65.1474 128.133H65.1477V126.133ZM112.753 121.897L111.021 122.897L111.021 122.897L112.753 121.897ZM65.1477 30.9717V28.9717H65.1474L65.1477 30.9717ZM62.7024 35.207L60.9703 36.2069L60.9703 36.207L62.7024 35.207ZM140.224 74.3164L141.956 73.3164V73.3164L140.224 74.3164ZM116.014 32.3838L114.282 33.3838V33.3838L116.014 32.3838ZM113.569 30.9717L113.569 28.9717H113.569V30.9717ZM124.623 2.64844V4.64844C128.196 4.64844 131.497 6.55447 133.284 9.64844L135.016 8.64844L136.748 7.64844C134.247 3.31678 129.625 0.648436 124.623 0.648438V2.64844ZM135.016 8.64844L133.284 9.64844L170.179 73.5527L171.911 72.5527L173.643 71.5527L136.748 7.64843L135.016 8.64844ZM171.911 72.5527L170.179 73.5527C171.966 76.6467 171.966 80.4588 170.179 83.5527L171.911 84.5527L173.643 85.5527C176.144 81.2211 176.144 75.8843 173.643 71.5527L171.911 72.5527ZM171.911 84.5527L170.179 83.5527L133.284 147.457L135.016 148.457L136.748 149.457L173.643 85.5527L171.911 84.5527ZM135.016 148.457L133.284 147.457C131.497 150.551 128.196 152.457 124.623 152.457V154.457L124.623 156.457C129.625 156.457 134.247 153.789 136.748 149.457L135.016 148.457ZM124.623 154.457V152.457H50.8332V154.457V156.457H124.623V154.457ZM50.8332 154.457L50.8332 152.457C47.2605 152.457 43.959 150.551 42.1727 147.457L40.4406 148.457L38.7086 149.457C41.2095 153.789 45.8316 156.457 50.8332 156.457V154.457ZM40.4406 148.457L42.1727 147.457L5.27718 83.5527L3.54514 84.5527L1.81309 85.5527L38.7086 149.457L40.4406 148.457ZM3.54514 84.5527L5.2772 83.5527C3.49093 80.4588 3.49093 76.6467 5.2772 73.5527L3.54514 72.5527L1.81308 71.5527C-0.687692 75.8843 -0.687693 81.2212 1.81308 85.5527L3.54514 84.5527ZM3.54514 72.5527L5.27718 73.5527L42.1727 9.64844L40.4406 8.64844L38.7086 7.64843L1.81309 71.5527L3.54514 72.5527ZM40.4406 8.64844L42.1727 9.64844C43.959 6.55447 47.2605 4.64844 50.8332 4.64844L50.8332 2.64844V0.648438C45.8316 0.648438 41.2095 3.31678 38.7086 7.64844L40.4406 8.64844ZM50.8332 2.64844V4.64844H124.623V2.64844V0.648438H50.8332V2.64844ZM62.7024 121.897L60.9702 120.898C59.1142 124.113 61.4349 128.132 65.1474 128.133L65.1477 126.133L65.1479 124.133C64.514 124.133 64.1177 123.446 64.4345 122.897L62.7024 121.897ZM65.1477 126.133V128.133H110.308V126.133V124.133H65.1477V126.133ZM110.308 126.133V128.133C114.021 128.133 116.342 124.113 114.485 120.897L112.753 121.897L111.021 122.897C111.338 123.446 110.942 124.133 110.308 124.133V126.133ZM112.753 121.897L114.485 120.897L89.4598 77.5518L87.7278 78.5518L85.9957 79.5518L111.021 122.897L112.753 121.897ZM87.7278 78.5518L85.9957 77.5518L60.9703 120.897L62.7024 121.897L64.4344 122.897L89.4598 79.5518L87.7278 78.5518ZM65.1477 30.9717L65.1474 28.9717C61.435 28.9721 59.1139 32.9912 60.9703 36.2069L62.7024 35.207L64.4345 34.2071C64.1177 33.6584 64.5138 32.9718 65.1479 32.9717L65.1477 30.9717ZM62.7024 35.207L60.9703 36.207L85.9957 79.5518L87.7278 78.5518L89.4598 77.5518L64.4344 34.207L62.7024 35.207ZM87.7278 78.5518V80.5518H137.779V78.5518V76.5518H87.7278V78.5518ZM137.779 78.5518V80.5518C141.492 80.5518 143.812 76.5321 141.956 73.3164L140.224 74.3164L138.492 75.3164C138.809 75.8654 138.413 76.5518 137.779 76.5518V78.5518ZM140.224 74.3164L141.956 73.3164L117.746 31.3838L116.014 32.3838L114.282 33.3838L138.492 75.3164L140.224 74.3164ZM116.014 32.3838L117.746 31.3838C116.885 29.8917 115.292 28.9717 113.569 28.9717L113.569 30.9717L113.569 32.9717C113.862 32.9717 114.135 33.1286 114.282 33.3838L116.014 32.3838ZM113.569 30.9717V28.9717H65.1477V30.9717V32.9717H113.569V30.9717Z" fill="#212121" style="mix-blend-mode:soft-light" mask="url(#path-4-inside-1_41_2)"/>
</g>
<path d="M249.576 120.253C241.842 120.253 234.778 118.396 228.384 114.683C222.028 110.969 217.013 105.915 213.337 99.5211C209.662 93.1272 207.824 86.1016 207.824 78.4443C207.824 70.7487 209.662 63.7231 213.337 57.3675C217.013 51.0119 222.028 45.9963 228.384 42.3208C234.778 38.607 241.842 36.7501 249.576 36.7501C254.4 36.7501 258.975 37.4967 263.302 38.9899C267.628 40.4448 271.552 42.5122 275.075 45.1923C275.726 45.7283 276.051 46.2835 276.051 46.8578C276.051 47.3555 275.84 47.8724 275.419 48.4084L269.159 56.6783C268.623 57.3292 268.049 57.6546 267.436 57.6546C266.939 57.6546 266.441 57.4632 265.943 57.0803C263.531 55.3957 260.928 54.0748 258.133 53.1176C255.376 52.1605 252.524 51.6819 249.576 51.6819C244.943 51.6819 240.636 52.8688 236.654 55.2426C232.672 57.578 229.494 60.7941 227.121 64.8908C224.785 68.9875 223.617 73.5244 223.617 78.5017C223.617 83.4407 224.785 87.9585 227.121 92.0552C229.494 96.1519 232.672 99.3871 236.654 101.761C240.636 104.135 244.943 105.322 249.576 105.322C252.677 105.322 255.529 104.881 258.133 104.001C260.736 103.082 263.359 101.646 266.001 99.6934C266.537 99.3488 267.034 99.1765 267.494 99.1765C268.183 99.1765 268.776 99.5019 269.274 100.153L275.477 108.423C275.898 109.035 276.108 109.571 276.108 110.031C276.108 110.567 275.821 111.065 275.247 111.524C271.648 114.281 267.666 116.425 263.302 117.956C258.975 119.488 254.4 120.253 249.576 120.253ZM303.704 116.578C303.704 118.109 302.938 118.875 301.407 118.875H291.357C289.825 118.875 289.059 118.109 289.059 116.578V31.4091C289.059 29.8776 289.825 29.1119 291.357 29.1119H301.407C302.938 29.1119 303.704 29.8776 303.704 31.4091V116.578ZM353.057 120.54C346.586 120.54 340.594 118.952 335.081 115.774C329.606 112.558 325.26 108.212 322.044 102.737C318.828 97.2239 317.22 91.2129 317.22 84.7041C317.22 78.1188 318.828 72.0695 322.044 66.5563C325.299 61.043 329.683 56.6783 335.196 53.4622C340.709 50.2461 346.701 48.6381 353.171 48.6381C359.68 48.6381 365.691 50.2461 371.204 53.4622C376.718 56.6783 381.082 61.043 384.298 66.5563C387.553 72.0695 389.18 78.1188 389.18 84.7041C389.18 91.2129 387.553 97.2239 384.298 102.737C381.044 108.212 376.641 112.558 371.09 115.774C365.576 118.952 359.565 120.54 353.057 120.54ZM353.229 106.413C357.019 106.413 360.542 105.456 363.796 103.541C367.05 101.627 369.635 99.0234 371.549 95.7307C373.463 92.3998 374.42 88.7051 374.42 84.6467C374.42 80.5883 373.463 76.8937 371.549 73.5627C369.635 70.1935 367.05 67.5517 363.796 65.6374C360.542 63.723 357.019 62.7659 353.229 62.7659C349.4 62.7659 345.859 63.723 342.604 65.6374C339.35 67.5517 336.766 70.1935 334.851 73.5627C332.937 76.8937 331.98 80.5883 331.98 84.6467C331.98 88.7051 332.937 92.3998 334.851 95.7307C336.766 99.0234 339.35 101.627 342.604 103.541C345.859 105.456 349.4 106.413 353.229 106.413ZM450.373 52.0839C450.373 50.5524 451.139 49.7867 452.671 49.7867H462.836C464.367 49.7867 465.133 50.5524 465.133 52.0839V116.578C465.133 118.109 464.367 118.875 462.836 118.875H454.796C453.456 118.875 452.632 118.205 452.326 116.865L450.948 110.26C448.383 113.094 445.052 115.448 440.955 117.324C436.897 119.162 432.838 120.081 428.78 120.081C423.228 120.081 418.347 118.856 414.135 116.406C409.924 113.917 406.669 110.414 404.372 105.896C402.075 101.34 400.926 96.0561 400.926 90.0451V52.0839C400.926 50.5524 401.692 49.7867 403.223 49.7867H413.503C415.035 49.7867 415.801 50.5524 415.801 52.0839V88.4945C415.801 92.0935 416.471 95.233 417.811 97.913C419.151 100.593 421.046 102.68 423.496 104.173C425.947 105.628 428.799 106.355 432.053 106.355C435.384 106.355 438.447 105.57 441.242 104.001C444.037 102.431 446.258 100.306 447.904 97.6259C449.55 94.9458 450.373 92.036 450.373 88.8965V52.0839ZM517.869 48.6381C524.225 48.6381 530.025 50.227 535.27 53.4048C540.516 56.5826 544.651 60.909 547.675 66.384C550.7 71.859 552.212 77.87 552.212 84.417C552.212 91.0023 550.7 97.0325 547.675 102.507C544.651 107.982 540.516 112.328 535.27 115.544C530.063 118.722 524.263 120.311 517.869 120.311C513.428 120.311 509.446 119.449 505.924 117.726C502.439 115.965 499.491 113.572 497.079 110.548L496.275 116.865C495.969 118.205 495.146 118.875 493.806 118.875H485.593C484.062 118.875 483.296 118.109 483.296 116.578V31.3517C483.296 29.8202 484.062 29.0545 485.593 29.0545H495.931C497.462 29.0545 498.228 29.8202 498.228 31.3517V57.1952C500.602 54.5151 503.416 52.4285 506.67 50.9353C509.963 49.4038 513.696 48.6381 517.869 48.6381ZM517.639 106.183C521.468 106.183 524.895 105.264 527.919 103.426C530.944 101.55 533.279 98.9851 534.926 95.7307C536.61 92.4763 537.453 88.7817 537.453 84.6467C537.453 80.5118 536.591 76.7788 534.868 73.4479C533.184 70.1169 530.829 67.5134 527.804 65.6374C524.78 63.723 521.353 62.7659 517.524 62.7659C513.657 62.7659 510.173 63.723 507.072 65.6374C503.971 67.5517 501.54 70.1744 499.779 73.5053C498.056 76.8362 497.194 80.55 497.194 84.6467C497.194 88.7434 498.075 92.4381 499.836 95.7307C501.597 98.9851 504.028 101.55 507.13 103.426C510.269 105.264 513.772 106.183 517.639 106.183ZM568.107 40.1385C566.576 40.1385 565.81 39.3727 565.81 37.8413V28.3079C565.81 26.7764 566.576 26.0107 568.107 26.0107H578.387C579.919 26.0107 580.685 26.7764 580.685 28.3079V37.8413C580.685 39.3727 579.919 40.1385 578.387 40.1385H568.107ZM580.627 116.578C580.627 118.109 579.861 118.875 578.33 118.875H568.165C566.633 118.875 565.868 118.109 565.868 116.578V52.0839C565.868 50.5524 566.633 49.7867 568.165 49.7867H578.33C579.861 49.7867 580.627 50.5524 580.627 52.0839V116.578ZM629.948 120.54C623.248 120.54 617.18 118.932 611.743 115.716C606.306 112.5 602.037 108.155 598.936 102.68C595.835 97.1665 594.284 91.1555 594.284 84.6467C594.284 78.0614 595.835 72.0313 598.936 66.5563C602.037 61.043 606.306 56.6783 611.743 53.4622C617.18 50.2461 623.267 48.6381 630.006 48.6381C634.562 48.6381 638.811 49.3464 642.755 50.763C646.737 52.1413 650.297 54.1131 653.437 56.6783C654.05 57.176 654.356 57.7503 654.356 58.4012C654.356 58.8606 654.184 59.3584 653.839 59.8944L648.9 66.8434C648.441 67.5326 647.885 67.8772 647.235 67.8772C646.66 67.8772 646.143 67.6666 645.684 67.2454C643.463 65.5608 641.128 64.2782 638.677 63.3976C636.227 62.517 633.528 62.0767 630.58 62.0767C626.713 62.0767 623.114 63.0722 619.783 65.0631C616.49 67.0157 613.868 69.7149 611.915 73.1607C609.962 76.6065 608.986 80.4352 608.986 84.6467C608.986 88.82 609.962 92.6295 611.915 96.0753C613.906 99.4828 616.548 102.163 619.84 104.115C623.171 106.068 626.77 107.044 630.637 107.044C633.585 107.044 636.285 106.604 638.735 105.724C641.224 104.843 643.559 103.56 645.741 101.876C646.239 101.493 646.737 101.301 647.235 101.301C647.885 101.301 648.46 101.646 648.957 102.335L653.839 109.284C654.222 109.82 654.413 110.337 654.413 110.835C654.413 111.371 654.184 111.849 653.724 112.271C650.585 114.912 646.986 116.961 642.927 118.416C638.907 119.832 634.581 120.54 629.948 120.54Z" fill="#1E1E1E"/>
</g>
<defs>
<filter id="filter0_f_41_2" x="-244.747" y="-164.173" width="696.677" height="720.718" filterUnits="userSpaceOnUse" color-interpolation-filters="sRGB">
<feFlood flood-opacity="0" result="BackgroundImageFix"/>
<feBlend mode="normal" in="SourceGraphic" in2="BackgroundImageFix" result="shape"/>
<feGaussianBlur stdDeviation="62.7451" result="effect1_foregroundBlur_41_2"/>
</filter>
<filter id="filter1_f_41_2" x="-122.979" y="-71.4775" width="269.045" height="274.725" filterUnits="userSpaceOnUse" color-interpolation-filters="sRGB">
<feFlood flood-opacity="0" result="BackgroundImageFix"/>
<feBlend mode="normal" in="SourceGraphic" in2="BackgroundImageFix" result="shape"/>
<feGaussianBlur stdDeviation="31.3725" result="effect1_foregroundBlur_41_2"/>
</filter>
<linearGradient id="paint0_linear_41_2" x1="43.2819" y1="2.64815" x2="130.307" y2="155.52" gradientUnits="userSpaceOnUse">
<stop stop-color="#FDB5C5"/>
<stop offset="1" stop-color="#737373"/>
</linearGradient>
<clipPath id="clip0_41_2">
<rect width="674" height="157" fill="white"/>
</clipPath>
</defs>
</svg>
